<mxfile host="app.diagrams.net" modified="2024-03-18T15:41:30.628Z" agent="Mozilla/5.0 (Windows NT 10.0; Win64; x64) AppleWebKit/537.36 (KHTML, like Gecko) Chrome/122.0.0.0 Safari/537.36" etag="cNaTIVJ2kwfS0ukBOXe7" version="24.0.7" type="device">
  <diagram name="PÃ¡gina-1" id="0pCOZUOu4uaF7IGmbM9T">
    <mxGraphModel dx="1969" dy="908" grid="1" gridSize="10" guides="1" tooltips="1" connect="1" arrows="1" fold="1" page="1" pageScale="1" pageWidth="827" pageHeight="1169" math="0" shadow="0">
      <root>
        <mxCell id="0" />
        <mxCell id="1" parent="0" />
        <mxCell id="C7B7KzcbY5t4LzTpPeGW-1" value="" style="edgeStyle=orthogonalEdgeStyle;rounded=0;orthogonalLoop=1;jettySize=auto;html=1;" parent="1" source="C7B7KzcbY5t4LzTpPeGW-2" target="C7B7KzcbY5t4LzTpPeGW-4" edge="1">
          <mxGeometry relative="1" as="geometry" />
        </mxCell>
        <mxCell id="C7B7KzcbY5t4LzTpPeGW-2" value="Projeto 3" style="ellipse;whiteSpace=wrap;html=1;" parent="1" vertex="1">
          <mxGeometry x="390" y="40" width="120" height="80" as="geometry" />
        </mxCell>
        <mxCell id="C7B7KzcbY5t4LzTpPeGW-3" value="" style="edgeStyle=orthogonalEdgeStyle;rounded=0;orthogonalLoop=1;jettySize=auto;html=1;" parent="1" source="C7B7KzcbY5t4LzTpPeGW-4" target="C7B7KzcbY5t4LzTpPeGW-5" edge="1">
          <mxGeometry relative="1" as="geometry" />
        </mxCell>
        <mxCell id="C7B7KzcbY5t4LzTpPeGW-4" value="Led&amp;nbsp;=&lt;span style=&quot;white-space: pre;&quot;&gt;&#x9;&lt;/span&gt;P1&lt;br&gt;Contar=&lt;span style=&quot;white-space: pre;&quot;&gt;&#x9;&lt;/span&gt;P3.0&lt;br&gt;Reset=&lt;span style=&quot;white-space: pre;&quot;&gt;&#x9;&lt;/span&gt;P3.1&lt;br&gt;&lt;div&gt;&lt;br&gt;&lt;/div&gt;" style="whiteSpace=wrap;html=1;" parent="1" vertex="1">
          <mxGeometry x="390" y="210" width="120" height="60" as="geometry" />
        </mxCell>
        <mxCell id="C7B7KzcbY5t4LzTpPeGW-8" value="" style="edgeStyle=none;curved=1;rounded=0;orthogonalLoop=1;jettySize=auto;html=1;fontSize=12;startSize=8;endSize=8;" parent="1" source="C7B7KzcbY5t4LzTpPeGW-5" target="C7B7KzcbY5t4LzTpPeGW-7" edge="1">
          <mxGeometry relative="1" as="geometry" />
        </mxCell>
        <mxCell id="C7B7KzcbY5t4LzTpPeGW-5" value="" style="ellipse;whiteSpace=wrap;html=1;" parent="1" vertex="1">
          <mxGeometry x="435" y="380" width="30" height="30" as="geometry" />
        </mxCell>
        <mxCell id="C7B7KzcbY5t4LzTpPeGW-6" value="Inicio" style="text;html=1;align=center;verticalAlign=middle;whiteSpace=wrap;rounded=0;" parent="1" vertex="1">
          <mxGeometry x="460" y="380" width="60" height="30" as="geometry" />
        </mxCell>
        <mxCell id="C7B7KzcbY5t4LzTpPeGW-23" value="" style="edgeStyle=none;curved=1;rounded=0;orthogonalLoop=1;jettySize=auto;html=1;fontSize=12;startSize=8;endSize=8;" parent="1" source="C7B7KzcbY5t4LzTpPeGW-7" target="C7B7KzcbY5t4LzTpPeGW-14" edge="1">
          <mxGeometry relative="1" as="geometry" />
        </mxCell>
        <mxCell id="C7B7KzcbY5t4LzTpPeGW-7" value="Led =&amp;nbsp;11111111b" style="whiteSpace=wrap;html=1;" parent="1" vertex="1">
          <mxGeometry x="390" y="510" width="120" height="60" as="geometry" />
        </mxCell>
        <mxCell id="C7B7KzcbY5t4LzTpPeGW-13" value="" style="edgeStyle=orthogonalEdgeStyle;rounded=0;orthogonalLoop=1;jettySize=auto;html=1;" parent="1" source="C7B7KzcbY5t4LzTpPeGW-14" target="C7B7KzcbY5t4LzTpPeGW-17" edge="1">
          <mxGeometry relative="1" as="geometry" />
        </mxCell>
        <mxCell id="C7B7KzcbY5t4LzTpPeGW-14" value="" style="ellipse;whiteSpace=wrap;html=1;" parent="1" vertex="1">
          <mxGeometry x="435" y="640" width="30" height="30" as="geometry" />
        </mxCell>
        <mxCell id="C7B7KzcbY5t4LzTpPeGW-15" value="Testar Contar" style="text;html=1;align=center;verticalAlign=middle;whiteSpace=wrap;rounded=0;" parent="1" vertex="1">
          <mxGeometry x="460" y="660" width="80" height="30" as="geometry" />
        </mxCell>
        <mxCell id="C7B7KzcbY5t4LzTpPeGW-16" value="F" style="edgeStyle=orthogonalEdgeStyle;rounded=0;orthogonalLoop=1;jettySize=auto;html=1;exitX=0;exitY=0.5;exitDx=0;exitDy=0;entryX=0.5;entryY=1;entryDx=0;entryDy=0;" parent="1" source="C7B7KzcbY5t4LzTpPeGW-17" target="C7B7KzcbY5t4LzTpPeGW-21" edge="1">
          <mxGeometry relative="1" as="geometry">
            <mxPoint x="360" y="910" as="targetPoint" />
          </mxGeometry>
        </mxCell>
        <mxCell id="C7B7KzcbY5t4LzTpPeGW-38" value="V" style="edgeStyle=none;curved=1;rounded=0;orthogonalLoop=1;jettySize=auto;html=1;fontSize=12;startSize=8;endSize=8;" parent="1" source="C7B7KzcbY5t4LzTpPeGW-17" target="C7B7KzcbY5t4LzTpPeGW-37" edge="1">
          <mxGeometry relative="1" as="geometry" />
        </mxCell>
        <mxCell id="C7B7KzcbY5t4LzTpPeGW-17" value="Contar = 0" style="rhombus;whiteSpace=wrap;html=1;" parent="1" vertex="1">
          <mxGeometry x="410" y="920" width="80" height="80" as="geometry" />
        </mxCell>
        <mxCell id="C7B7KzcbY5t4LzTpPeGW-18" value="F" style="edgeStyle=orthogonalEdgeStyle;rounded=0;orthogonalLoop=1;jettySize=auto;html=1;exitX=1;exitY=0;exitDx=0;exitDy=0;entryX=0;entryY=0.5;entryDx=0;entryDy=0;" parent="1" source="C7B7KzcbY5t4LzTpPeGW-19" target="C7B7KzcbY5t4LzTpPeGW-14" edge="1">
          <mxGeometry relative="1" as="geometry">
            <Array as="points">
              <mxPoint x="380" y="655" />
            </Array>
          </mxGeometry>
        </mxCell>
        <mxCell id="C7B7KzcbY5t4LzTpPeGW-29" value="V" style="edgeStyle=orthogonalEdgeStyle;rounded=0;orthogonalLoop=1;jettySize=auto;html=1;exitX=0;exitY=0;exitDx=0;exitDy=0;entryX=0;entryY=0.5;entryDx=0;entryDy=0;fontSize=12;startSize=8;endSize=8;" parent="1" source="C7B7KzcbY5t4LzTpPeGW-19" target="C7B7KzcbY5t4LzTpPeGW-5" edge="1">
          <mxGeometry relative="1" as="geometry">
            <Array as="points">
              <mxPoint x="340" y="395" />
            </Array>
          </mxGeometry>
        </mxCell>
        <mxCell id="C7B7KzcbY5t4LzTpPeGW-19" value="Reset=0" style="rhombus;whiteSpace=wrap;html=1;" parent="1" vertex="1">
          <mxGeometry x="320" y="750" width="80" height="80" as="geometry" />
        </mxCell>
        <mxCell id="C7B7KzcbY5t4LzTpPeGW-20" value="" style="edgeStyle=orthogonalEdgeStyle;rounded=0;orthogonalLoop=1;jettySize=auto;html=1;" parent="1" source="C7B7KzcbY5t4LzTpPeGW-21" target="C7B7KzcbY5t4LzTpPeGW-19" edge="1">
          <mxGeometry relative="1" as="geometry" />
        </mxCell>
        <mxCell id="C7B7KzcbY5t4LzTpPeGW-21" value="" style="ellipse;whiteSpace=wrap;html=1;" parent="1" vertex="1">
          <mxGeometry x="345" y="860" width="30" height="30" as="geometry" />
        </mxCell>
        <mxCell id="C7B7KzcbY5t4LzTpPeGW-22" value="Testar Reset" style="text;html=1;align=center;verticalAlign=middle;whiteSpace=wrap;rounded=0;" parent="1" vertex="1">
          <mxGeometry x="375" y="860" width="75" height="30" as="geometry" />
        </mxCell>
        <mxCell id="C7B7KzcbY5t4LzTpPeGW-40" style="edgeStyle=orthogonalEdgeStyle;rounded=0;orthogonalLoop=1;jettySize=auto;html=1;exitX=1;exitY=0.5;exitDx=0;exitDy=0;entryX=1;entryY=0.5;entryDx=0;entryDy=0;fontSize=12;startSize=8;endSize=8;" parent="1" source="C7B7KzcbY5t4LzTpPeGW-30" target="C7B7KzcbY5t4LzTpPeGW-14" edge="1">
          <mxGeometry relative="1" as="geometry">
            <Array as="points">
              <mxPoint x="570" y="1250" />
              <mxPoint x="570" y="655" />
            </Array>
          </mxGeometry>
        </mxCell>
        <mxCell id="C7B7KzcbY5t4LzTpPeGW-30" value="Incrementa Led" style="whiteSpace=wrap;html=1;" parent="1" vertex="1">
          <mxGeometry x="390" y="1220" width="120" height="60" as="geometry" />
        </mxCell>
        <mxCell id="C7B7KzcbY5t4LzTpPeGW-36" value="V" style="edgeStyle=orthogonalEdgeStyle;rounded=0;orthogonalLoop=1;jettySize=auto;html=1;exitX=0;exitY=0.5;exitDx=0;exitDy=0;entryX=0;entryY=0.5;entryDx=0;entryDy=0;fontSize=12;startSize=8;endSize=8;" parent="1" source="C7B7KzcbY5t4LzTpPeGW-37" target="C7B7KzcbY5t4LzTpPeGW-5" edge="1">
          <mxGeometry relative="1" as="geometry">
            <mxPoint x="410" y="1270" as="sourcePoint" />
            <Array as="points">
              <mxPoint x="260" y="1110" />
              <mxPoint x="260" y="395" />
            </Array>
          </mxGeometry>
        </mxCell>
        <mxCell id="C7B7KzcbY5t4LzTpPeGW-39" value="F" style="edgeStyle=none;curved=1;rounded=0;orthogonalLoop=1;jettySize=auto;html=1;fontSize=12;startSize=8;endSize=8;" parent="1" source="C7B7KzcbY5t4LzTpPeGW-37" target="C7B7KzcbY5t4LzTpPeGW-30" edge="1">
          <mxGeometry relative="1" as="geometry" />
        </mxCell>
        <mxCell id="C7B7KzcbY5t4LzTpPeGW-37" value="Led = 9" style="rhombus;whiteSpace=wrap;html=1;" parent="1" vertex="1">
          <mxGeometry x="410" y="1070" width="80" height="80" as="geometry" />
        </mxCell>
      </root>
    </mxGraphModel>
  </diagram>
</mxfile>
